<svg xmlns="http://www.w3.org/2000/svg" width="196.49" height="375.02" viewBox="0 0 196.49 375.02"><style>.st0,.st1{fill:none;stroke:url(#SVGID_1_)}.st1{stroke:url(#SVGID_2_)}.st2,.st3{fill:none;stroke:url(#SVGID_3_)}.st3{stroke:url(#SVGID_4_)}</style><defs><radialGradient id="SVGID_1_" cx="100" cy="150" r="150" gradientUnits="userSpaceOnUse"><stop offset="0" stop-color="#877eba"><animate attributeName="stop-color" dur="4s" repeatCount="indefinite" values="#877EBA; #8FCFD0; #877EBA; #F39B9E; #877EBA"/></stop><stop offset=".32" stop-color="#8fcfd0"><animate attributeName="stop-color" dur="4s" repeatCount="indefinite" values="#8FCFD0; #877EBA; #F39B9E; #877EBA; #8FCFD0"/></stop><stop offset=".69" stop-color="#f39b9e"><animate attributeName="stop-color" dur="4s" repeatCount="indefinite" values="#F39B9E; #877EBA; #8FCFD0; #877EBA; #F39B9E"/></stop><stop offset="1" stop-color="#f39b9e"/></radialGradient></defs>height=&quot;266.3px&quot; viewBox=&quot;0 0 140 266.3&quot; style=&quot;enable-background:new 0 0 140 266.3;&quot; xml:space=&quot;preserve&quot;&gt;<style>.st0{opacity:.5}.st1{fill:none;stroke:url(#SVGID_1_);stroke-width:.5}</style><defs><radialGradient id="SVGID_1_" cx="100" cy="150" r="150" gradientUnits="userSpaceOnUse"><stop offset="0" stop-color="#877eba"><animate attributeName="stop-color" dur="4s" repeatCount="indefinite" values="#877EBA; #8FCFD0; #877EBA; #F39B9E; #877EBA"/></stop><stop offset=".32" stop-color="#8fcfd0"><animate attributeName="stop-color" dur="4s" repeatCount="indefinite" values="#8FCFD0; #877EBA; #F39B9E; #877EBA; #8FCFD0"/></stop><stop offset=".69" stop-color="#f39b9e"><animate attributeName="stop-color" dur="4s" repeatCount="indefinite" values="#F39B9E; #877EBA; #8FCFD0; #877EBA; #F39B9E"/></stop><stop offset="1" stop-color="#f39b9e"/></radialGradient></defs><g class="st0"><radialGradient id="SVGID_1_" cx="74.03" cy="137.65" r="98.59" gradientUnits="userSpaceOnUse"><stop offset="0" stop-color="#877eba"/><stop offset=".32" stop-color="#8fcfd0"/><stop offset=".69" stop-color="#877eba"/><stop offset="1" stop-color="#f39b9e"/></radialGradient><path d="M139.29 64.39c-4.73 9.68-20.66-20.28-25.44-24.98-5.99-7.84-13.31-17-20.11-23-7.02-5.72-1.01 5.52.24 8.4 3.93 9.45 8.03 20.89 11.15 30.95 7.76 23.22.17 20.16-17.93 11.5-14.6-6.53-32.87-15.64-47.01-21.45-1.45-.58-4.18-1.79-4.12-.22 10.27 11.15 27.72 22.82 39.98 33.39C81.09 83.86 91.97 90.21 92.77 96c-6.23 2.16-18.12-2.11-26.17-2.65-17.71-2.1-41.48-7.35-57.43-.88-5.05 8.74 43.13 15.98 50.4 18.8 24.69 6.62 17.96 7.81-1.7 12.6-9.9 2.64-22.05 7.53-30.53 13.05-4.16 2.71-22.07 14.61-10.91 17.02 19.07.6 43.8-6.58 62.28-8.18 1.23.02 3.81-.25 2.18 1.1-16.65 10.7-38.22 24.19-51.61 40.24-26.42 36.11 30.46 7.05 41.19-1.99 11.24-6.4 37.53-28.89 15.02-4.42-8.89 11.08-21.64 27.11-21.08 42.23.81 14.6 18.14 11.6 25.69 3.76 11.24-9.19 18.46-25.26 27.14-35.82-3.95 15.23-8.62 34.23-5.33 50.63 3.75 22.43 18.14 26.53 26.65 3.98" class="st1"/><radialGradient id="SVGID_2_" cx="72.91" cy="133.74" r="98.76" gradientUnits="userSpaceOnUse"><stop offset="0" stop-color="#877eba"/><stop offset=".32" stop-color="#8fcfd0"/><stop offset=".69" stop-color="#877eba"/><stop offset="1" stop-color="#f39b9e"/></radialGradient><path d="M139.29 67.71c-9.62-8.2-17.2-24.88-26.17-35.37-3.16-4.76-26.57-32.74-22.29-15.7 4.44 14.76 21.06 38.9 18.42 53.73-7.01 1.62-23.57-10.4-32.23-13.04C65.04 53.09 51.96 45.81 39.7 45.6c-1.26.29.55 2.75 2.67 4.64C53.47 60.65 71.4 73.2 83.08 83.4c18.49 14.35 6.94 11.03-7.27 7.74-13.59-2.86-32.81-6.43-47.25-6.41-12.79-.99-35.16 3.15-11.63 13.49 16.2 6.93 38.14 10.86 54.28 15.48 24.33 6.26-36.86 3.18-52.1 20.78-24.35 26.2 28.96 15.07 41.19 13.26 28.22-4.6 18.27-2.17-.48 8.62-14.14 9.45-38.48 24-39.98 41.79 9.15 13.98 50.02-14.2 60.82-20.34 4.59-2.64 11.04-7.88 14.54-9.07-5.38 5.13-13.95 13.54-19.87 20.34-48.75 58.99 10.02 53.03 35.38 9.06 5.29-7.94 6.18-8.85 2.42.67-4.63 11.95-8.51 26.38-7.03 39.58 4.83 29.01 24.59 18.92 31.74-3.32" class="st2"/><radialGradient id="SVGID_3_" cx="73.16" cy="129.62" r="98.67" gradientUnits="userSpaceOnUse"><stop offset="0" stop-color="#877eba"/><stop offset=".32" stop-color="#8fcfd0"/><stop offset=".69" stop-color="#877eba"/><stop offset="1" stop-color="#f39b9e"/></radialGradient><path d="M139.29 65.28c-3.22-5.53-44.83-74.35-48.95-54.61 2.34 13.53 11.83 28.82 17.45 41.79 2.36 5.74 6.4 12.46 5.09 17.25-3.63 1.38-10.87-5.11-15.03-7.29-14.82-8.82-34.62-18.13-52.1-16.81-8.67 3.55 16.23 19.51 19.87 23.44C74.38 76.54 85.98 84 92.76 91.82c-.33 2.21-6.2-.39-9.94-1.33-11.8-3.25-29.27-7.59-42.65-8.62-8.67-1.39-45.56-2.39-28.84 11.72C30.76 106 57.96 109.86 79.18 115.7c2.15.76.21.99-.97 1.11-14.63.21-35 .46-49.92 5.75-16.34 4.54-25.05 20-4.85 25.65 13.07 2.71 28.49.59 41.68-1.55 3.4-.36 9.57-1.63 11.63-1.55-14.3 6.85-33.14 15.17-45.07 27.42-9.48 7.48-19.43 26.41.24 24.76 21.54-2.79 46.8-18.08 64.46-29.63-83.39 68.73-34.49 88.09 15.99 27.42 7.14-9.36 2 .42.24 5.31-4.19 9.25-8.44 20.39-9.69 30.73-1.53 10.03 3.62 24.83 16.24 20.12 10.05-4.59 15.78-16.26 20.11-26.31" class="st3"/><radialGradient id="SVGID_4_" cx="73.92" cy="125.53" r="98.08" gradientUnits="userSpaceOnUse"><stop offset="0" stop-color="#877eba"/><stop offset=".32" stop-color="#8fcfd0"/><stop offset=".69" stop-color="#877eba"/><stop offset="1" stop-color="#f39b9e"/></radialGradient><path d="M139.29 60.19C132.65 48.61 108.4-.87 93.01 4.03c0 0 0 .22-.24.22-3.74 20.31 18.32 46.45 23.26 65.45-1.55 1.99-8.08-5.49-11.63-7.96-8.05-6.99-19.23-14.33-29.56-18.35-7.69-2.53-17.84-4.97-24.23-.44-9.51 9.02 24.72 31.09 31.26 37.37 3.58 3.08 8.27 6.51 10.42 9.29-8.44-1.4-20.15-6.91-30.29-8.84-9.9-2.34-54.64-10.92-51.86 5.3 15.78 17.61 47.19 21.86 69.06 28.52 3.15.66 4.36 1.1 3.64 1.1-19.95-.85-48.37-3.17-67.12 5.75-15.68 8.39-3.31 19.24 8.72 22.55 15.76 5.16 35.89 1.96 51.61 1.11-13.25 4.7-29.31 9.93-41.19 19.24-8.41 5.67-22.98 22.87-6.54 27.42 22.61 1.99 49.48-14.09 68.09-23.88-16.66 14.51-42.18 31.52-50.16 53.95-.1 21.74 41.94-6.09 49.43-13.04 5.88-5 12.44-10.8 16.48-15.26 9.54-10.59 2.79 1.62 0 7.74-3.74 11.57-20.28 35.06-9.45 45.32 17.67 5.31 30.63-17.82 36.84-31.62" class="st4"/><radialGradient id="SVGID_5_" cx="72.32" cy="123.49" r="99.12" gradientUnits="userSpaceOnUse"><stop offset="0" stop-color="#877eba"/><stop offset=".32" stop-color="#8fcfd0"/><stop offset=".69" stop-color="#877eba"/><stop offset="1" stop-color="#f39b9e"/></radialGradient><path d="M139.29 53.12c-2.52-8.63-39.18-72.49-45.32-45.55.39 21.56 18.03 46.27 23.03 63.9-13.11-13.03-30.45-33.5-50.4-36.48-11.03-1.93-17.82 6.83-12.6 16.58 4.07 8.74 13.43 16.61 21.08 22.99 1.67 1.99 21.97 16.83 12.84 12.38-14.5-6.58-30.97-12.41-47.5-13.93-10.66-1.52-38.17.45-23.02 15.7 16.56 13.95 46.14 22.09 66.4 27.42-22.15-1.61-58.96-9.16-78.03 5.08-6.08 13.25 21.35 19.28 31.02 21.45 12.19 2.79 28.97 1.65 39.5 1.77-17.86 7.19-49.73 9.58-55.25 32.06 4.25 20.92 43.67 4.64 56.46-.44 5.79-1.93 27.1-14.06 11.87-2.65h-.24c-8.69 6.87-21.84 17.02-30.53 25.65-16.29 13.93-28.04 37.56 4.36 24.1 19.16-7.88 36.79-23.22 51.86-35.82 9.23-6.32-21.2 47.09-19.63 52.4-1.51 12.37 13.53 3.33 18.66-.66 10.84-7.73 19.52-20.76 25.93-32.28" class="st5"/><radialGradient id="SVGID_6_" cx="70.46" cy="124.19" r="100.36" gradientUnits="userSpaceOnUse"><stop offset="0" stop-color="#877eba"/><stop offset=".32" stop-color="#8fcfd0"/><stop offset=".69" stop-color="#877eba"/><stop offset="1" stop-color="#f39b9e"/></radialGradient><path d="M139.29 44.49c-6.78-15.6-17.46-34.77-31.74-43.34-28.33-8.66 7.95 63.32 11.39 71.64-.49-.44-2.18-2.65-4.6-5.75-9.49-12.02-42-52.81-57.19-33.83-6.21 21.57 19.01 40.13 32.47 52.84-16.73-7.12-48.14-25.87-69.3-13.04-13.92 19.64 50.53 38.51 62.75 42.9-12.26-1.36-80.36-14.64-81.42 4.86 13.28 19.66 53.48 20.95 74.88 22.11 2.02.26.36.98-.73 1.33-15.11 4.96-36.83 8.09-50.65 17.25-17.2 15.57 13.99 22.29 26.41 19.01 13.54-1.39 28.42-7.78 40.95-10.83-6.41 10.48-55.3 38.16-52.58 53.51 10.07 6.93 33.9-9.84 44.34-15.92 8.46-5.42 15.94-11.59 23.02-17.03 2.08-1.6 7.57-6.46 8.48-4.86-2.52 12.81-12.18 27.3-17.2 40.02-3.44 8.64-8.15 14.71-8 22.33 4.33 1.6 9.24-4.74 14.06-7.96 12.73-10.29 23.88-25.34 33.68-38.03" class="st6"/><radialGradient id="SVGID_7_" cx="69.77" cy="124.93" r="101.18" gradientUnits="userSpaceOnUse"><stop offset="0" stop-color="#877eba"/><stop offset=".32" stop-color="#8fcfd0"/><stop offset=".69" stop-color="#877eba"/><stop offset="1" stop-color="#f39b9e"/></radialGradient><path d="M139.29 34.99c-3.56-11.33-32.17-54.02-38.05-24.54-1.18 20.21 10.94 45.72 18.42 63.23.24.22.24.44 0 .44-10.05-15.29-23.4-34.71-39.01-45.77C54.76 9.93 55.4 39.66 66.11 55.99 71.92 67 82.3 77.66 90.34 85.62c1.54 2.34-6.76-3.69-8.97-4.64-11.93-7.08-26.82-15.57-41.43-15.92-14.25-.79-21.37 9.75-10.66 20.56 13 13.98 35.67 22.38 52.58 29.63-19.95-2.58-47.22-8.59-68.09-6.41-26.95 2.57-7.64 17.01 6.54 21.23 12.93 4.91 30.08 8.33 43.37 9.95 2.91.92 16.05.59 15.02 2.87 0 0-.24 0-.24.22-16.65 6.33-41.9 8.76-57.91 17.24-14.61 10.07 18 15.17 25.44 14.59 13.57.76 29.45-3.83 41.92-5.53 3.65 4.31-30.47 25.88-35.38 31.4-6.59 5.15-26.08 24.51-4.6 19.02 18.39-5.14 39.8-19.98 55.25-30.73 17.61-13.58 10.91-.15 6.06 11.06-1 4.74-27.23 52.44-20.11 49.3.24 0 .24-.22.48-.22 9.99-8.96 21.64-22.69 30.78-33.39 6.45-6.36 10.3-15.5 17.93-17.91" class="st7"/><radialGradient id="SVGID_8_" cx="70.41" cy="126.63" r="100.9" gradientUnits="userSpaceOnUse"><stop offset="0" stop-color="#877eba"/><stop offset=".32" stop-color="#8fcfd0"/><stop offset=".69" stop-color="#877eba"/><stop offset="1" stop-color="#f39b9e"/></radialGradient><path d="M139.29 25.04c-4.31-9.02-11.98-20.43-21.57-22.99-26.02-.5-2.87 59.38 2.18 71.86-1.39-1.17-2.48-4.28-5.57-8.84 0-.22-.24-.22-.24-.44-9.51-15.13-22.92-36.39-39.26-45.55-25.62-9.03-5.7 37.27 1.21 45.77 0 .22.24.22.24.44 5.4 8.28 9.97 14.13 15.51 20.56.73 1.11.97 1.55.24 1.33-13.95-7.8-30.66-22.27-47-25.88-11.94-2.82-17.87 7.59-11.87 17.47 9.88 23.03 75.7 42.08 30.77 33.38-9.18-1.13-65-13.98-62.28 1.1 11.72 13.14 38.53 18.15 56.22 22.11 7.97 2.13 18.36 1.8 23.51 4.86-11.27 6.36-28.76 7.89-41.92 11.94-5.14 2.2-34.41 6.69-23.51 11.72 17.45 5.7 40.72 5.26 58.88 3.32 25.45-3.95.91 13.67-6.78 20.34-8.76 7.95-22.88 15.76-28.84 25.65 2.71 11.37 49.86-19.27 56.7-23.43 9.51-5.99 23.02-16.49 14.54 3.09-6.47 16.15-16.45 37.01-23.5 53.06-1.46 3.8-2.31 6.04-.73 5.09 8.87-9.48 18.53-23.73 26.9-34.27 0-.22.24-.22.24-.44 5.49-5.39 20.15-31.28 24.72-16.14" class="st8"/><radialGradient id="SVGID_9_" cx="71.51" cy="127.92" r="100.12" gradientUnits="userSpaceOnUse"><stop offset="0" stop-color="#877eba"/><stop offset=".32" stop-color="#8fcfd0"/><stop offset=".69" stop-color="#877eba"/><stop offset="1" stop-color="#f39b9e"/></radialGradient><path d="M139.29 15.75c-6.08-12.36-23.77-18.27-27.38-1.1-4.26 17.9 3.22 40.87 8 57.93-9.98-16.06-22.3-39.52-36.83-52.62-17.06-16.21-20.23 1.9-14.54 16.58C72.2 48.78 79.6 63.29 86.71 73.9c3.56 6.33 16.41 20.11.97 9.73-10.01-5.09-64.23-48.83-49.92-11.72 7 16.54 26.58 28.6 39.98 38.69 3.48 3.7-8.18 1.31-10.42 1.11-16.56-2.53-37.29-7.21-54.52-7.3-22.92 1.5 3.84 15.13 13.09 17.91 16.62 6.99 40.24 9.96 55.73 15.26 5.42 4.03-31.2 10.99-36.11 12.6-66.51 15.05-24.91 12.29 11.15 13.27 9.84 1.08 40.53-5.58 23.5 11.05-5.82 6.5-13.88 13.66-20.84 19.68-6.71 5.27-32.03 23.27-7.75 15.04 69.35-30.29 73.94-56.04 37.32 31.84-8.26 18.37-2.16 10.03 5.09-.66 9.42-13.95 20.2-30.47 30.77-43.33 11.39-14.46 12.08 9.34 13.81 17.47" class="st9"/><radialGradient id="SVGID_10_" cx="72.18" cy="128.46" r="99.55" gradientUnits="userSpaceOnUse"><stop offset="0" stop-color="#877eba"/><stop offset=".32" stop-color="#8fcfd0"/><stop offset=".69" stop-color="#877eba"/><stop offset="1" stop-color="#f39b9e"/></radialGradient><path d="M139.29 8.46c-12-10.79-22.41 6.4-23.02 18.57-1.97 13.28 1.84 30.26 3.63 42.67-.49 3.13-6.31-9-7.75-10.83-5.6-8.82-28.66-54.81-40.71-45.55-4.88 15.96 7.59 38.21 15.26 53.07 1.99 5.73 19.62 27.58 6.06 19.24-17.45-9.49-35.71-26.35-54.28-32.72-10.88 3.51 24.44 43.41 30.54 46.86 22.04 17.19-9.55 9.12-20.36 8.18-12.36-1.49-29-6.64-40.71-4.42-6.87 6.37 23.89 16.14 29.8 18.35 10.48 3.41 20.39 6.23 30.05 8.62 5.56 1.8 11.05 2.09 13.81 5.31.07 2.94-5.96 3.82-10.66 5.75-11.85 3.78-28.17 7.63-40.95 11.05-8.41 2.7-19.39 4.07-24.48 7.52 4.79 1 11.77.23 18.17 0 65.05-.55 82.11-14.12 24.47 41.35-2.74 2.91-4.77 3.95-6.06 6.19 10.5-.32 25.59-10.66 36.83-15.48 5.69-1.77 28.66-18.58 28.59-7.74-2.56 16.14-11.32 34-17.2 49.53-3.64 9.64-12.64 29.67.48 8.62 6.08-7.28 31.49-56.05 39.25-51.96 5.82 13.12 4.15 31.27 8.48 45.55" class="st10"/><radialGradient id="SVGID_11_" cx="71.8" cy="128.77" r="100.1" gradientUnits="userSpaceOnUse"><stop offset="0" stop-color="#877eba"/><stop offset=".32" stop-color="#8fcfd0"/><stop offset=".69" stop-color="#877eba"/><stop offset="1" stop-color="#f39b9e"/></radialGradient><path d="M139.29 4.7c-22.06 8.64-18.51 42.41-18.42 61.46-.52 5.76-5.08-2.57-6.78-5.08-4.08-6.82-41.16-76.76-39.5-38.25 1.49 11.04 6.6 23.14 11.15 33.83 1.05 5.1 20.8 35.29 10.91 30.51-14.49-7.04-31.96-20.57-46.53-29.41-3.66-1.77-15.02-10.99-15.51-7.08 5.82 11.19 16.98 22.88 25.2 32.94 4.89 7.08 17.5 15.61 17.93 22.77-14.87 5.07-36.06-1.27-51.86-2.65-5.69-1.16-22.4-3.61-11.15 3.98 18.11 12.11 46.64 15.98 65.43 26.31 0 0 0 .22.24.22 1.25 10.2-119.31 32.23-59.37 25.65 88.44-7.99 73.29-13.95 21.81 45.99-2.18 2.89 3.11-.8 5.57-1.77 6.96-2.28 54.02-31.68 55.01-21.89-1 21.7-15.07 46.9-19.38 68.1 6.2-.92 41.13-75.39 45.56-59.92 2.91 18.64 2.6 43.92 9.69 62.57" class="st11"/><radialGradient id="SVGID_12_" cx="71.43" cy="134.37" r="102.82" gradientUnits="userSpaceOnUse"><stop offset="0" stop-color="#877eba"/><stop offset=".32" stop-color="#8fcfd0"/><stop offset=".69" stop-color="#877eba"/><stop offset="1" stop-color="#f39b9e"/></radialGradient><path d="M139.29 6.02c-20.53 27.07-9.83 74.25-23.26 54.83-6.15-4.53-29.48-58.38-36.11-46.65-1.5 16.7 8.56 36.76 15.02 52.18 1.49 5.65 9.57 15.6 6.3 19.68-19.35-6.4-41.84-26.01-59.85-36.04h-.24C23.9 39.3 44 58.14 47.94 62.85c4.72 6.6 37.99 35.4 32.96 40.9-11.1 3.64-27.1.46-39.26.44-8.54-.71-15.72-1.31-23.02-1.99-1.51-.16-2.64-.48-3.15.44 8.39 6.42 23.79 11.19 34.65 15.7 4.82 2.92 35.86 9.11 27.38 15.47-14.88 8.49-35.37 12.85-52.1 18.35-5.99 2.31-18.15 4.42-21.33 7.29 21.01-1.57 50.51-7.17 71.97-7.96 19.97-1.56 2.98 11.18-3.64 17.47-10.35 9.76-23.57 21.72-31.26 33.39-8.05 12.34 12.39-3.32 16.24-5.08 8.76-5.56 19.48-10.9 28.59-15.48 8.1-3.62 15.46-6.36 12.12 5.97-3.98 17.97-11.67 40.84-13.81 59.03 1.7 5.85 15.07-21.77 17.93-25.43 0 0 0-.22.24-.22 4.65-5.64 26.51-52.56 25.44-24.54 1.03 20.3-.57 49.15 11.39 66.11" class="st12"/><radialGradient id="SVGID_13_" cx="71.79" cy="140.32" r="101.14" gradientUnits="userSpaceOnUse"><stop offset="0" stop-color="#877eba"/><stop offset=".32" stop-color="#8fcfd0"/><stop offset=".69" stop-color="#877eba"/><stop offset="1" stop-color="#f39b9e"/></radialGradient><path d="M139.29 14.43c-2.4 6.93-4.51 14.5-6.54 21.67-3.32 9.12-2.53 21.67-8.72 28.3-12.4-5.25-21.97-27.02-29.57-38.25 0-.22-.24-.22-.24-.44-21.4-34.46-5.12 22.85-.24 32.27 7.35 19.65 18.99 37.52-10.66 18.57C75.3 73.21 8.16 25.3 42.85 56.43c72.17 65.47 41.6 42.64-26.66 45.77 17.92 8.86 43.63 13.79 59.85 25.2 3.19 9.27-62.59 25.59-71.24 31.62h-.24c3.13 4.08 88.68-17.26 79.97-5.09-14.27 14.95-38.39 31.2-49.19 49.97-8.71 18.42 40.66-20.93 45.56-21.45 21.26-12.04 13.41.95 9.21 15.26-4.32 14.31-7.59 31.43-6.79 45.77 4.58 9.65 32.15-53.08 39.26-55.27.97-.22 1.45 1.1 1.45 4.2.01 10.46-.66 21.06.24 32.5 1.1 9.92 2.61 41.92 14.54 41.12" class="st13"/><radialGradient id="SVGID_14_" cx="73.86" cy="140.83" r="99.39" gradientUnits="userSpaceOnUse"><stop offset="0" stop-color="#877eba"/><stop offset=".32" stop-color="#8fcfd0"/><stop offset=".69" stop-color="#877eba"/><stop offset="1" stop-color="#f39b9e"/></radialGradient><path d="M139.29 30.12c-2.82 7.54-3.81 32.76-11.39 34.05-5.45-1.61-9.85-9.25-14.06-13.71-7.67-9.85-15.64-20.82-22.05-30.95-6.19-9.28-1.62 8.8-.49 13.49 2.71 15.03 12.99 32.68 13.57 47.09-6.52 8.4-60.88-33.16-71.97-35.82 4.19 8.17 62.33 49.34 55.01 55.72-17.53 1.99-40.27-3.42-58.64-2.21-26 .63-11.31 4.34 2.91 7.96 75.07 21.94 36.36 21.18-8.72 43.12-46.58 18.54 27.72 1.04 39.01.44 11.33-1.17 35.78-7.27 13.81 8.18-13.94 10.71-32.24 25.82-42.41 39.8-11.36 16.56 5.69 10.33 14.78 4.42 78.77-50.53 32.52-26.03 30.77 24.1 2.27 38.91 27.57-17.06 34.41-26.31 15.51-29.01 5.17 5.81 6.79 18.57-.74 9.08 3.44 59.69 18.9 43.56" class="st14"/><radialGradient id="SVGID_15_" cx="74.94" cy="140.33" r="98.96" gradientUnits="userSpaceOnUse"><stop offset="0" stop-color="#877eba"/><stop offset=".32" stop-color="#8fcfd0"/><stop offset=".69" stop-color="#877eba"/><stop offset="1" stop-color="#f39b9e"/></radialGradient><path d="M139.29 50.46c-3.56 18.16-7.06 19.27-18.17 4.42-9.92-12.03-20.15-27.01-30.77-37.81 2.87 13.55 8.71 29.48 12.6 43.11 2.76 8.28 7.98 21.99-6.3 15.48-4.05.71-73.03-40.95-61.06-29.63 13.56 12.08 31.81 25.89 45.3 38.26 14.18 12.68 15.1 15.84-6.06 12.82-23.39-4.88-112.08-7.31-29.56 11.28 5.37 2.05 42.08 9.58 23.75 16.14-13.8 5.49-30.1 11.69-43.13 19.24C21.42 146.52.8 157 15.71 155.93c20.16-1.28 47.48-8.96 67.61-9.51 1.55.48.66 1.53-1.45 3.32-9.66 7.16-19.99 13.66-30.05 22.33-11.43 7.85-46.91 46.54-9.69 31.62 15.34-7.18 32.64-19.8 46.28-28.97.24 0 .24-.22.48-.22 2.91-1.99 4.85-2.87 5.33-2.43-6.92 13.61-20.47 29.27-21.81 45.99-.84 6.8.6 14.79 6.3 18.35 14.97 3.5 24.8-23.81 32.47-33.61 3.3-5.37 11.06-20.95 7.99-5.75-2.99 14.47-4.15 34.15-.73 49.31 2.56 14.12 12.66 26.96 21.08 8.84" class="st15"/></g></svg>